<?xml version="1.0" standalone="no"?>
<!DOCTYPE svg PUBLIC "-//W3C//DTD SVG 20010904//EN"
 "http://www.w3.org/TR/2001/REC-SVG-20010904/DTD/svg10.dtd">
<svg version="1.0" xmlns="http://www.w3.org/2000/svg"
 width="225.000000pt" height="225.000000pt" viewBox="0 0 225.000000 225.000000"
 preserveAspectRatio="xMidYMid meet">
<metadata>
Created by potrace 1.14, written by Peter Selinger 2001-2017
</metadata>
<g transform="translate(0.000000,225.000000) scale(0.100000,-0.100000)"
fill="#000000" stroke="none">
<path d="M1123 1821 c-115 -42 -214 -115 -213 -159 1 -14 3 -13 13 5 17 30 51
55 132 95 93 47 165 64 197 47 13 -6 26 -17 30 -23 5 -7 8 -5 8 5 0 48 -76 62
-167 30z"/>
<path d="M1396 1759 c-22 -50 -84 -120 -132 -150 -19 -11 -34 -25 -34 -30 0
-43 126 68 163 145 16 32 27 62 25 67 -2 6 -12 -9 -22 -32z"/>
<path d="M792 1568 c5 -18 11 -40 12 -48 3 -22 16 -41 25 -36 4 3 14 -6 21
-19 7 -13 31 -37 52 -51 27 -19 35 -30 26 -35 -7 -5 -21 -1 -33 9 -11 9 -15
10 -8 3 10 -11 9 -17 -2 -25 -9 -7 -11 -16 -7 -24 7 -9 15 -6 36 13 l28 26 32
-28 c18 -16 31 -31 29 -36 -2 -4 8 -12 22 -17 18 -7 25 -15 21 -26 -3 -8 -2
-13 3 -10 5 3 20 -3 32 -15 13 -11 17 -17 9 -13 -12 6 -13 4 -2 -7 18 -19 15
-49 -5 -49 -19 0 -46 46 -37 61 3 5 -2 9 -10 9 -9 0 -16 8 -16 19 0 28 -18 36
-40 16 -19 -17 -61 -17 -117 0 -27 9 -30 -2 -5 -22 12 -10 14 -16 5 -19 -18
-8 -16 -24 2 -24 8 0 15 -5 15 -11 0 -5 -5 -7 -11 -4 -6 4 -5 -2 3 -14 13 -22
33 -27 42 -12 3 4 2 11 -1 15 -4 4 -8 15 -10 25 -4 26 61 46 82 24 18 -18 19
-30 3 -36 -7 -2 1 -7 18 -11 21 -5 34 -15 38 -29 8 -31 7 -44 -2 -30 -5 8 -21
10 -46 6 -30 -5 -35 -8 -22 -15 27 -15 19 -46 -14 -53 -33 -7 -39 -21 -12 -28
9 -3 -2 -5 -25 -6 -32 -1 -43 3 -43 14 0 8 9 15 19 15 20 0 31 18 31 52 0 16
-5 19 -24 14 -15 -4 -28 0 -36 9 -9 10 -17 12 -30 5 -13 -7 -20 -6 -23 3 -2 6
-5 -14 -6 -45 -1 -34 3 -58 9 -58 5 0 10 -18 10 -40 0 -22 -4 -40 -10 -40 -5
0 -10 18 -10 39 0 36 -3 40 -30 46 -16 4 -33 4 -37 2 -5 -3 -17 1 -28 9 -15
12 -16 14 -3 14 9 0 19 -6 21 -12 4 -9 6 -9 6 -1 1 7 10 9 24 5 20 -5 21 -4 7
13 -14 16 -13 17 6 11 18 -5 22 -2 22 17 l0 24 -26 -24 c-14 -12 -30 -23 -36
-23 -6 0 9 17 34 39 24 21 51 36 60 34 11 -3 16 4 18 21 1 14 -1 26 -5 26 -16
0 -196 -146 -239 -193 -74 -83 -111 -174 -86 -214 32 -51 205 -38 326 25 42
22 46 27 30 34 -14 6 -12 7 8 3 25 -5 47 8 31 18 -5 2 -2 2 6 0 8 -2 24 3 37
12 35 23 112 104 119 126 4 10 10 19 15 19 14 0 40 61 47 106 8 60 -22 109
-124 200 -134 120 -193 182 -209 220 -18 43 -26 44 -12 2z m329 -411 c-10 -9
-11 -8 -5 6 3 10 9 15 12 12 3 -3 0 -11 -7 -18z m-257 -28 c-3 -5 -3 -42 1
-82 l7 -72 43 3 c36 3 45 0 55 -18 9 -17 9 -25 0 -34 -8 -8 -10 -7 -6 4 7 19
-13 51 -21 33 -5 -15 -39 -17 -47 -4 -3 5 -14 7 -24 4 -16 -4 -19 6 -28 86 -6
60 -6 92 1 95 15 5 26 -4 19 -15z m211 -29 c3 -5 1 -10 -4 -10 -6 0 -11 5 -11
10 0 6 2 10 4 10 3 0 8 -4 11 -10z m-36 -51 c-22 -13 -39 -11 -33 5 7 17 37
26 43 13 2 -5 -3 -13 -10 -18z m-350 -31 c1 -3 -8 -4 -19 -1 -17 4 -18 8 -8
26 11 21 11 21 19 2 4 -11 8 -23 8 -27z m107 -25 c-11 -11 -19 6 -11 24 8 17
8 17 12 0 3 -10 2 -21 -1 -24z m-130 -1 c-4 -3 -14 2 -24 12 -16 18 -16 18 6
6 13 -6 21 -14 18 -18z m-24 -20 c-7 -2 -9 -9 -5 -15 3 -7 2 -8 -2 -4 -16 14
-14 36 3 29 10 -4 12 -7 4 -10z m-48 -16 c-3 -8 -13 -17 -22 -21 -13 -5 -13
-2 3 15 21 24 26 25 19 6z"/>
<path d="M1173 1572 c-47 -5 -52 -32 -5 -33 33 -1 34 -2 12 -9 l-25 -7 25 -10
c18 -8 26 -7 28 2 4 16 51 37 64 29 7 -4 8 -2 4 5 -6 8 0 10 21 5 15 -4 54 -9
86 -11 66 -5 75 -20 17 -29 -22 -4 -40 -10 -40 -15 0 -16 -31 -9 -37 9 -14 37
-53 36 -53 -2 0 -28 47 -56 94 -56 40 0 45 6 19 26 -17 12 -17 13 3 14 12 0
36 3 53 6 31 6 31 6 21 -20 l-10 -27 63 3 c43 2 61 7 60 16 -2 8 13 12 52 12
30 0 55 5 55 10 0 6 -18 10 -40 10 -22 0 -40 5 -40 10 0 6 10 10 22 10 12 0
19 3 16 6 -11 10 -118 -20 -118 -33 0 -7 -4 -13 -9 -13 -15 0 -32 27 -25 43 3
8 1 18 -4 21 -17 11 -132 23 -132 14 0 -4 -5 -8 -11 -8 -5 0 -8 4 -5 9 3 5
-10 11 -29 13 -19 2 -35 0 -35 -4 0 -10 -57 -11 -62 0 -1 4 -17 6 -35 4z m52
-30 c-3 -3 -11 0 -18 7 -9 10 -8 11 6 5 10 -3 15 -9 12 -12z"/>
<path d="M703 1533 c9 -2 23 -2 30 0 6 3 -1 5 -18 5 -16 0 -22 -2 -12 -5z"/>
<path d="M563 1503 c15 -2 39 -2 55 0 15 2 2 4 -28 4 -30 0 -43 -2 -27 -4z"/>
<path d="M475 1490 c3 -5 15 -10 26 -10 11 0 17 5 14 10 -3 6 -15 10 -26 10
-11 0 -17 -4 -14 -10z"/>
<path d="M1065 1490 c-3 -5 -1 -10 4 -10 6 0 11 5 11 10 0 6 -2 10 -4 10 -3 0
-8 -4 -11 -10z"/>
<path d="M1119 1498 c-5 -16 -4 -50 1 -53 14 -9 41 21 34 38 -5 14 -31 25 -35
15z"/>
<path d="M1773 1485 c-10 -11 -8 -14 10 -18 l22 -4 -22 -2 c-13 0 -23 -5 -23
-10 0 -5 -17 -7 -37 -5 -34 4 -36 3 -20 -9 18 -15 24 -33 7 -22 -9 6 -7 -5 7
-45 4 -8 8 -25 10 -37 3 -20 -1 -23 -32 -23 -31 0 -39 5 -63 45 -23 38 -32 45
-58 45 -32 0 -32 0 -28 -47 2 -27 3 -76 4 -110 0 -61 1 -63 26 -63 20 0 29 7
37 30 10 27 16 31 45 28 18 -2 32 -6 32 -10 0 -5 0 -42 0 -83 l0 -75 -29 0
c-23 0 -33 7 -43 28 -9 19 -22 28 -43 30 l-30 3 1 -78 c4 -186 2 -173 29 -183
15 -6 25 -17 25 -30 0 -19 -6 -20 -150 -20 -131 0 -151 2 -157 16 -4 11 3 23
20 36 l27 20 0 243 0 243 -25 16 c-33 22 -42 20 -70 -10 -29 -31 -30 -35 -11
-28 7 3 16 -2 19 -10 4 -9 2 -16 -4 -16 -5 0 -2 -15 8 -32 45 -87 0 -221 -109
-329 -75 -73 -143 -118 -261 -174 -121 -57 -202 -78 -312 -79 -112 -1 -166 19
-190 71 -15 31 -15 38 1 86 10 29 17 58 15 66 -1 7 2 10 8 6 6 -3 14 2 18 11
3 10 20 30 37 45 32 28 31 53 -1 28 -16 -13 -17 -12 -4 4 8 9 21 15 30 12 10
-3 36 13 66 40 27 25 53 45 57 45 5 0 8 7 8 15 0 8 7 15 17 15 9 0 13 3 10 7
-4 3 -2 12 3 18 8 9 6 14 -4 18 -10 4 -13 1 -9 -8 3 -9 -4 -18 -20 -24 -14 -5
-28 -15 -32 -20 -12 -21 -25 -11 -25 19 0 23 -5 30 -19 30 -21 0 -34 13 -24
24 3 3 12 1 19 -5 10 -8 18 -7 29 5 19 19 46 21 63 4 9 -9 12 -7 12 9 0 31 22
34 53 7 32 -27 33 -31 10 -37 -13 -3 -12 -5 5 -6 13 0 30 6 38 14 9 8 24 15
35 15 33 0 21 26 -18 38 l-38 11 43 -2 42 -3 0 48 c0 41 -3 48 -20 48 -11 0
-30 6 -41 13 -17 10 -23 10 -26 0 -3 -7 -14 -13 -24 -13 -11 0 -17 -4 -14 -10
3 -5 23 -10 43 -10 20 0 45 -7 55 -14 23 -18 22 -46 -3 -46 -11 0 -20 5 -20
10 0 6 -13 10 -30 10 -19 0 -34 7 -42 20 -7 11 -21 20 -30 20 -11 0 -18 8 -18
20 0 23 -32 39 -93 47 -31 5 -38 9 -34 23 11 41 -86 26 -99 -15 l-7 -20 -8 20
c-12 32 -11 34 26 41 19 3 35 11 35 16 0 6 -8 7 -17 3 -10 -4 -31 -11 -48 -15
-61 -15 -140 -44 -183 -67 -57 -30 -114 -84 -107 -101 3 -7 0 -10 -6 -7 -14
10 -54 -33 -74 -80 -23 -53 -22 -145 2 -187 26 -46 45 -68 55 -62 5 3 7 1 6
-5 -5 -17 892 -910 937 -934 57 -29 147 -28 206 2 57 30 967 941 990 991 24
51 31 100 16 101 -6 1 -22 3 -35 4 -12 1 -26 6 -30 10 -4 4 0 6 8 4 22 -5 60
23 60 43 0 10 -4 18 -9 18 -5 0 -11 10 -13 23 -2 12 -9 21 -16 19 -8 -1 -11 2
-7 8 12 20 -15 37 -62 39 -56 2 -62 6 -40 29 12 11 20 13 25 6 4 -6 16 -14 27
-18 15 -5 11 2 -13 27 -21 22 -50 38 -82 46 -28 7 -48 17 -45 21 3 5 -9 5 -27
0 -51 -14 -144 -8 -140 9 1 7 -3 19 -9 27 -15 19 1 18 29 -1 16 -12 26 -13 42
-5 16 9 20 8 20 -5 0 -8 9 -15 20 -15 11 0 20 6 20 13 0 20 -17 40 -28 33 -6
-4 -27 0 -47 8 -19 8 -42 13 -49 10 -7 -3 -16 2 -19 10 -8 20 -28 20 -44 1z
m-28 -75 c3 -5 1 -10 -4 -10 -6 0 -11 5 -11 10 0 6 2 10 4 10 3 0 8 -4 11 -10z
m-130 -79 c1 -11 -2 -18 -7 -15 -5 4 -7 12 -4 19 2 7 0 18 -5 24 -6 8 -5 8 3
1 6 -5 12 -19 13 -29z m-35 8 c0 -5 -4 -9 -10 -9 -5 0 -10 7 -10 16 0 8 5 12
10 9 6 -3 10 -10 10 -16z m-933 -24 c6 -14 7 -25 2 -25 -5 0 -9 4 -9 9 0 5
-18 12 -40 16 -51 9 -52 25 -2 25 30 0 39 -5 49 -25z m680 -17 c-3 -8 -6 -5
-6 6 -1 11 2 17 5 13 3 -3 4 -12 1 -19z m433 12 c0 -5 -2 -10 -4 -10 -3 0 -8
5 -11 10 -3 6 -1 10 4 10 6 0 11 -4 11 -10z m-1145 -30 c-3 -5 -13 -10 -21
-10 -8 0 -14 5 -14 10 0 6 9 10 21 10 11 0 17 -4 14 -10z m80 -10 c3 -5 1 -10
-4 -10 -6 0 -11 5 -11 10 0 6 2 10 4 10 3 0 8 -4 11 -10z m1355 0 c0 -5 -4
-10 -10 -10 -5 0 -10 5 -10 10 0 6 5 10 10 10 6 0 10 -4 10 -10z m-1295 -20
c3 -5 -3 -10 -14 -10 -12 0 -21 5 -21 10 0 6 6 10 14 10 8 0 18 -4 21 -10z
m1417 -2 c-9 -9 -15 -9 -24 0 -9 9 -7 12 12 12 19 0 21 -3 12 -12z m-1942 -48
c0 -5 -4 -10 -10 -10 -5 0 -10 5 -10 10 0 6 5 10 10 10 6 0 10 -4 10 -10z
m1905 -50 c3 -5 -1 -10 -10 -10 -9 0 -13 5 -10 10 3 6 8 10 10 10 2 0 7 -4 10
-10z m-1905 -10 c0 -5 -5 -10 -11 -10 -5 0 -7 5 -4 10 3 6 8 10 11 10 2 0 4
-4 4 -10z m167 -32 c-3 -8 -6 -5 -6 6 -1 11 2 17 5 13 3 -3 4 -12 1 -19z m903
-4 c0 -9 -5 -14 -12 -12 -18 6 -21 28 -4 28 9 0 16 -7 16 -16z m-766 -15 c-21
-24 -34 -24 -34 -1 0 11 8 17 26 18 24 2 25 1 8 -17z m1613 5 c-3 -3 -12 -4
-19 -1 -8 3 -5 6 6 6 11 1 17 -2 13 -5z m80 -10 c-3 -3 -12 -4 -19 -1 -8 3 -5
6 6 6 11 1 17 -2 13 -5z m-897 -20 c0 -8 -4 -12 -10 -9 -5 3 -10 10 -10 16 0
5 5 9 10 9 6 0 10 -7 10 -16z m895 -4 c3 -5 -1 -10 -9 -10 -9 0 -16 5 -16 10
0 6 4 10 9 10 6 0 13 -4 16 -10z m-964 -52 c-10 -11 -11 -10 -6 3 4 10 2 20
-4 24 -6 3 -11 1 -11 -6 0 -7 -3 -10 -6 -6 -3 3 -3 11 1 17 5 9 12 8 23 -4 13
-13 14 -18 3 -28z m-47 -16 c3 -5 -1 -9 -9 -9 -8 0 -12 4 -9 9 3 4 7 8 9 8 2
0 6 -4 9 -8z"/>
<path d="M530 1470 c0 -5 25 -10 55 -10 30 0 55 5 55 10 0 6 -25 10 -55 10
-30 0 -55 -4 -55 -10z"/>
<path d="M800 1442 c0 -16 32 -12 37 5 3 7 -4 11 -16 10 -12 -1 -21 -7 -21
-15z"/>
<path d="M1618 1453 c12 -2 30 -2 40 0 9 3 -1 5 -23 4 -22 0 -30 -2 -17 -4z"/>
<path d="M1177 1432 c-21 -23 -21 -28 -3 -35 10 -4 12 0 9 14 -4 13 0 19 10
19 9 0 19 5 22 10 11 18 -21 11 -38 -8z"/>
<path d="M2030 1415 c7 -8 17 -15 22 -15 6 0 5 7 -2 15 -7 8 -17 15 -22 15 -6
0 -5 -7 2 -15z"/>
<path d="M1200 1394 c0 -8 5 -12 10 -9 6 3 10 10 10 16 0 5 -4 9 -10 9 -5 0
-10 -7 -10 -16z"/>
<path d="M820 1385 c0 -8 5 -15 10 -15 6 0 10 7 10 15 0 8 -4 15 -10 15 -5 0
-10 -7 -10 -15z"/>
<path d="M960 1315 c0 -30 6 -32 19 -6 8 14 7 20 -4 25 -11 4 -15 -2 -15 -19z"/>
<path d="M816 1251 c-3 -5 1 -11 9 -15 8 -3 15 -1 15 4 0 13 -18 22 -24 11z"/>
<path d="M577 1196 c-3 -8 -3 -17 0 -20 7 -7 33 13 33 25 0 15 -27 10 -33 -5z"/>
<path d="M940 1190 c0 -5 5 -10 10 -10 6 0 10 5 10 10 0 6 -4 10 -10 10 -5 0
-10 -4 -10 -10z"/>
<path d="M855 1180 c-3 -5 -1 -10 4 -10 6 0 11 5 11 10 0 6 -2 10 -4 10 -3 0
-8 -4 -11 -10z"/>
</g>
</svg>
